<mxfile host="65bd71144e">
    <diagram id="PoCe2Z2xQ_YSlHPcF_Pw" name="Page-1">
        <mxGraphModel dx="997" dy="847" grid="1" gridSize="10" guides="1" tooltips="1" connect="1" arrows="1" fold="1" page="1" pageScale="1" pageWidth="850" pageHeight="1100" math="0" shadow="0">
            <root>
                <mxCell id="0"/>
                <mxCell id="1" parent="0"/>
                <mxCell id="2" value="" style="endArrow=classic;html=1;strokeWidth=3;" parent="1" edge="1">
                    <mxGeometry width="50" height="50" relative="1" as="geometry">
                        <mxPoint x="40" y="440" as="sourcePoint"/>
                        <mxPoint x="760" y="440" as="targetPoint"/>
                    </mxGeometry>
                </mxCell>
                <mxCell id="3" value="" style="endArrow=classic;html=1;strokeWidth=3;" parent="1" edge="1">
                    <mxGeometry width="50" height="50" relative="1" as="geometry">
                        <mxPoint x="400" y="600" as="sourcePoint"/>
                        <mxPoint x="400" y="280" as="targetPoint"/>
                    </mxGeometry>
                </mxCell>
                <mxCell id="4" value="Разрешимость" style="text;html=1;align=center;verticalAlign=middle;whiteSpace=wrap;rounded=0;fontStyle=2;fontSize=20;" parent="1" vertex="1">
                    <mxGeometry x="410" y="270" width="160" height="30" as="geometry"/>
                </mxCell>
                <mxCell id="6" value="Полнота" style="text;html=1;align=center;verticalAlign=middle;whiteSpace=wrap;rounded=0;fontStyle=2;fontSize=20;" parent="1" vertex="1">
                    <mxGeometry x="680" y="450" width="135" height="30" as="geometry"/>
                </mxCell>
                <mxCell id="7" value="Слишком жёсткая система типов" style="text;html=1;align=center;verticalAlign=middle;whiteSpace=wrap;rounded=0;fontSize=22;fontStyle=1" parent="1" vertex="1">
                    <mxGeometry x="110" y="330" width="210" height="70" as="geometry"/>
                </mxCell>
                <mxCell id="8" value="Слишком ограниченный язык" style="text;html=1;align=center;verticalAlign=middle;whiteSpace=wrap;rounded=0;fontSize=22;fontStyle=1" parent="1" vertex="1">
                    <mxGeometry x="490" y="330" width="210" height="70" as="geometry"/>
                </mxCell>
                <mxCell id="9" value="&quot;Дичь какая-то&quot;" style="text;html=1;align=center;verticalAlign=middle;whiteSpace=wrap;rounded=0;fontSize=22;fontStyle=1" parent="1" vertex="1">
                    <mxGeometry x="110" y="520" width="210" height="30" as="geometry"/>
                </mxCell>
                <mxCell id="10" value="TypeScript" style="text;html=1;align=center;verticalAlign=middle;whiteSpace=wrap;rounded=0;fontSize=24;fontStyle=1;fontColor=#007FFF;" parent="1" vertex="1">
                    <mxGeometry x="490" y="520" width="210" height="30" as="geometry"/>
                </mxCell>
            </root>
        </mxGraphModel>
    </diagram>
</mxfile>